<svg xmlns="http://www.w3.org/2000/svg" data-name="Layer 1" viewBox="0 0 512 512"><path fill="#343c4a" d="M206.628 3.499h98.744a31 31 0 0 1 31 31v67H175.628v-67a31 31 0 0 1 31-31Z"/><path fill="#243047" d="M290.504 101.499h45.868v-67a30.856 30.856 0 0 0-3.552-14.408 88.172 88.172 0 0 1-13.513 24.846A87.812 87.812 0 0 1 305 59.5Z"/><path fill="#8fd17a" d="M447.56 501.999v-154.68a60 60 0 0 0-38.01-55.824l-97.019-38.217a20 20 0 0 1-12.67-18.608v-18.907H212.14v18.907a20 20 0 0 1-12.67 18.608l-97.019 38.217a60 60 0 0 0-38.01 55.825v154.679a10 10 0 0 0 10 10h363.12a10 10 0 0 0 10-10Z"/><path fill="#cc938b" d="M194.28 255.323a67.498 67.498 0 0 0 123.441 0l-5.19-2.045a20 20 0 0 1-12.67-18.608v-18.907H212.14v18.907a20 20 0 0 1-12.67 18.608l-5.19 2.045Z"/><path fill="#a56362" d="M303.044 245.472a19.962 19.962 0 0 1-3.183-10.802v-18.907H212.14v7.74a100.872 100.872 0 0 0 23.568 21.193 63.122 63.122 0 0 0 67.337.776Z"/><path fill="#cc938b" d="M327.573 180.203a100.878 100.878 0 0 1-37.28 43.492 63.128 63.128 0 0 1-68.586 0 100.88 100.88 0 0 1-37.28-43.492 100.879 100.879 0 0 1-8.8-41.205v-37.499a211.645 211.645 0 0 0 78.514-13.9A210.466 210.466 0 0 0 305 59.5a68.355 68.355 0 0 0 31.372 42v37.499a100.88 100.88 0 0 1-8.799 41.205ZM64.44 453.984h70.68v58.015H64.44z"/><path fill="#a56362" d="M268.704 159.487v6.15a12.701 12.701 0 0 1-12.7 12.702h-.007a12.701 12.701 0 0 1-12.701-12.701v-6.151a3 3 0 0 1 3-3h19.408a3 3 0 0 1 3 3ZM175.628 138.479a23.39 23.39 0 0 1-23.39-23.39 17.66 17.66 0 0 1 17.66-17.66h5.73v41.05ZM336.372 138.479v-41.05h5.73a17.66 17.66 0 0 1 17.66 17.66 23.39 23.39 0 0 1-23.39 23.39Z"/><rect width="191.322" height="191.322" x="317.178" y="320.677" fill="#f2f2f2" rx="15"/><path fill="#343c4a" d="M332.178 320.677H493.5a15 15 0 0 1 15 15v20H317.178v-20a15 15 0 0 1 15-15Z"/><path fill="#cce4ff" d="M203.5 117.821h35a7 7 0 0 1 7 7v13a7 7 0 0 1-7 7h-28a7 7 0 0 1-7-7v-20zm70 0h35v20a7 7 0 0 1-7 7h-28a7 7 0 0 1-7-7v-13a7 7 0 0 1 7-7z"/><path fill="none" stroke="#000" stroke-linecap="round" stroke-linejoin="round" stroke-width="7" d="M175.628 101.5v-67a31 31 0 0 1 31-31h98.744a31 31 0 0 1 31 31v67M299.86 216.68v17.99a20.004 20.004 0 0 0 12.67 18.61l97.02 38.22a59.888 59.888 0 0 1 29.88 25.68m-227.29-100.5v17.99a20.004 20.004 0 0 1-12.67 18.61l-97.02 38.22a59.995 59.995 0 0 0-38.01 55.82V508.5M135.12 508.5v-73.174"/><path fill="none" stroke="#000" stroke-linecap="round" stroke-linejoin="round" stroke-width="7" d="M327.573 180.204a100.878 100.878 0 0 1-37.28 43.492h0a63.128 63.128 0 0 1-68.586 0 100.88 100.88 0 0 1-37.28-43.492h0a100.878 100.878 0 0 1-8.8-41.205V101.5a211.645 211.645 0 0 0 78.514-13.9A210.466 210.466 0 0 0 305 59.5a68.355 68.355 0 0 0 31.372 42v37.499a100.88 100.88 0 0 1-8.799 41.205ZM64.44 453.985h70.68"/><path fill="none" stroke="#000" stroke-linecap="round" stroke-linejoin="round" stroke-width="7" d="M241.78 197.982a33.196 33.196 0 0 0 28.44 0m-1.516-37.873v5.53a12.703 12.703 0 0 1-12.704 12.7h0a12.703 12.703 0 0 1-12.704-12.7v-5.53M175.628 138.48h0a23.39 23.39 0 0 1-23.39-23.39h0a17.66 17.66 0 0 1 17.66-17.66h5.73v41.05h0ZM317.721 255.324a67.498 67.498 0 0 1-123.442 0M336.372 101.5 308.5 117.821M175.628 101.5l27.872 16.321M266.5 131.32h-21M203.5 117.821h35a7 7 0 0 1 7 7v13a7 7 0 0 1-7 7h-28a7 7 0 0 1-7-7v-20h0zm70 0h35v20a7 7 0 0 1-7 7h-28a7 7 0 0 1-7-7v-13a7 7 0 0 1 7-7zM305 59.5a87.812 87.812 0 0 0 14.307-14.562 88.172 88.172 0 0 0 13.515-24.852m3.55 118.394h0V97.43h5.73a17.66 17.66 0 0 1 17.66 17.66v0a23.39 23.39 0 0 1-23.39 23.39z"/><rect width="191.322" height="191.322" x="317.178" y="317.178" fill="none" stroke="#000" stroke-linecap="round" stroke-linejoin="round" stroke-width="7" rx="15"/><path fill="none" stroke="#000" stroke-linecap="round" stroke-linejoin="round" stroke-width="7" d="M332.178 317.178H493.5a15 15 0 0 1 15 15v20h0-191.322 0v-20a15 15 0 0 1 15-15Z"/><circle cx="337.517" cy="335.054" r="3.5"/><circle cx="351.517" cy="335.054" r="3.5"/><circle cx="365.517" cy="335.054" r="3.5"/><path fill="none" stroke="#000" stroke-linecap="round" stroke-linejoin="round" stroke-width="7" d="m378.688 453.037-25.54-19.52a4 4 0 0 1 0-6.356l25.54-19.52m68.302 45.396 25.54-19.52a4 4 0 0 0 0-6.356l-25.54-19.52M398.456 458.245l28.766-55.812"/></svg>