<?xml version="1.0" encoding="UTF-8"?>
<svg xmlns="http://www.w3.org/2000/svg" xmlns:xlink="http://www.w3.org/1999/xlink" viewBox="0 0 100 100" width="100px" height="100px">
<g id="surface58387861">
<path style=" stroke:none;fill-rule:nonzero;fill:rgb(96.470588%,90.196079%,41.568628%);fill-opacity:1;" d="M 49.625 8.140625 C 49.058594 8.136719 48.519531 8.371094 48.136719 8.785156 C 47.753906 9.203125 47.5625 9.761719 47.617188 10.324219 L 48.042969 15.871094 C 48.089844 16.589844 48.519531 17.230469 49.167969 17.542969 C 49.816406 17.859375 50.582031 17.800781 51.175781 17.390625 C 51.769531 16.980469 52.097656 16.28125 52.03125 15.566406 L 51.601562 10.015625 C 51.539062 8.96875 50.671875 8.148438 49.621094 8.140625 Z M 62.613281 10.375 C 62.175781 10.371094 61.785156 10.652344 61.65625 11.070312 C 60.851562 13.480469 58.480469 17.605469 58.480469 17.605469 C 58.292969 17.914062 58.289062 18.300781 58.464844 18.613281 C 58.644531 18.929688 58.976562 19.121094 59.339844 19.121094 C 59.699219 19.121094 60.03125 18.925781 60.207031 18.609375 C 60.207031 18.609375 62.601562 14.554688 63.550781 11.703125 C 63.660156 11.394531 63.609375 11.058594 63.425781 10.796875 C 63.238281 10.53125 62.9375 10.375 62.613281 10.375 Z M 39.574219 11.863281 C 39.253906 11.878906 38.964844 12.046875 38.789062 12.3125 C 38.613281 12.578125 38.574219 12.910156 38.6875 13.207031 L 40.449219 18.222656 C 40.558594 18.570312 40.847656 18.828125 41.207031 18.898438 C 41.5625 18.96875 41.929688 18.839844 42.164062 18.5625 C 42.398438 18.285156 42.464844 17.902344 42.335938 17.5625 L 40.574219 12.546875 C 40.429688 12.117188 40.023438 11.839844 39.574219 11.863281 Z M 27.601562 16.410156 C 27.25 16.414062 26.925781 16.609375 26.753906 16.914062 C 26.578125 17.222656 26.578125 17.597656 26.753906 17.90625 L 30.515625 24.710938 C 30.691406 25.023438 31.015625 25.21875 31.375 25.226562 C 31.730469 25.234375 32.066406 25.046875 32.25 24.742188 C 32.433594 24.4375 32.441406 24.054688 32.265625 23.742188 L 28.503906 16.933594 C 28.328125 16.605469 27.976562 16.398438 27.601562 16.410156 Z M 78.691406 18.039062 C 78.5 18.035156 78.3125 18.085938 78.148438 18.1875 L 69.832031 23.148438 C 69.515625 23.324219 69.324219 23.660156 69.324219 24.023438 C 69.328125 24.386719 69.527344 24.71875 69.84375 24.894531 C 70.164062 25.066406 70.550781 25.054688 70.859375 24.863281 L 79.171875 19.90625 C 79.5625 19.679688 79.753906 19.222656 79.640625 18.785156 C 79.53125 18.351562 79.140625 18.042969 78.691406 18.039062 Z M 48.613281 22 C 33.410156 22.078125 22.808594 35.15625 22.03125 49.894531 C 21.226562 65.214844 34.609375 77.203125 49.898438 77.964844 C 65.914062 78.769531 77.175781 65.117188 77.964844 50.105469 C 78.78125 34.589844 65.371094 22.796875 50.097656 22.035156 C 49.601562 22.011719 49.105469 22 48.613281 22 Z M 88.625 24.367188 C 88.242188 24.375 87.871094 24.492188 87.550781 24.703125 L 77.3125 31.328125 C 76.707031 31.710938 76.355469 32.390625 76.390625 33.109375 C 76.421875 33.828125 76.839844 34.46875 77.480469 34.796875 C 78.117188 35.121094 78.882812 35.078125 79.484375 34.683594 L 89.722656 28.0625 C 90.488281 27.585938 90.835938 26.660156 90.582031 25.796875 C 90.324219 24.9375 89.527344 24.351562 88.625 24.367188 Z M 18.472656 24.824219 C 17.585938 24.859375 16.832031 25.476562 16.617188 26.339844 C 16.402344 27.199219 16.78125 28.101562 17.546875 28.546875 L 23.023438 31.863281 C 23.636719 32.25 24.410156 32.277344 25.046875 31.933594 C 25.6875 31.585938 26.085938 30.925781 26.097656 30.199219 C 26.105469 29.472656 25.722656 28.800781 25.09375 28.441406 L 19.617188 25.125 C 19.277344 24.910156 18.878906 24.808594 18.472656 24.824219 Z M 48.628906 26 C 49.050781 26 49.472656 26.007812 49.902344 26.03125 C 50.136719 26.042969 50.371094 26.0625 50.601562 26.082031 L 49.550781 28.621094 C 49.414062 28.949219 49.464844 29.328125 49.679688 29.609375 C 49.898438 29.894531 50.25 30.042969 50.605469 29.996094 C 50.957031 29.949219 51.261719 29.71875 51.398438 29.386719 L 52.675781 26.308594 C 64.792969 28.128906 74.613281 37.707031 73.972656 49.894531 C 73.933594 50.636719 73.863281 51.371094 73.769531 52.097656 L 69.679688 53.753906 C 69.335938 53.882812 69.09375 54.183594 69.039062 54.546875 C 68.984375 54.90625 69.132812 55.265625 69.421875 55.484375 C 69.707031 55.707031 70.09375 55.753906 70.429688 55.609375 L 73.375 54.414062 C 73.109375 55.65625 72.769531 56.871094 72.351562 58.046875 L 67.429688 58.363281 C 67.074219 58.386719 66.757812 58.601562 66.597656 58.921875 C 66.441406 59.242188 66.464844 59.621094 66.664062 59.917969 C 66.863281 60.214844 67.203125 60.382812 67.5625 60.359375 L 71.527344 60.101562 C 68.058594 67.84375 61.179688 73.542969 52.3125 73.964844 L 51.445312 71.3125 C 51.3125 70.882812 50.910156 70.59375 50.460938 70.609375 C 50.140625 70.617188 49.847656 70.777344 49.667969 71.039062 C 49.488281 71.300781 49.441406 71.632812 49.542969 71.929688 L 50.210938 73.972656 C 50.171875 73.972656 50.136719 73.972656 50.101562 73.96875 C 48.800781 73.90625 47.519531 73.746094 46.265625 73.503906 L 46.789062 70.847656 C 46.851562 70.550781 46.777344 70.238281 46.582031 70.003906 C 46.386719 69.765625 46.09375 69.632812 45.789062 69.640625 C 45.3125 69.652344 44.910156 69.996094 44.828125 70.460938 L 44.316406 73.050781 C 43.058594 72.714844 41.835938 72.292969 40.660156 71.785156 L 41.683594 70.089844 C 41.875 69.785156 41.886719 69.402344 41.714844 69.085938 C 41.546875 68.773438 41.222656 68.570312 40.863281 68.558594 C 40.496094 68.550781 40.15625 68.742188 39.972656 69.054688 L 38.84375 70.921875 C 37.828125 70.394531 36.851562 69.808594 35.925781 69.160156 L 37.878906 66.886719 C 38.140625 66.59375 38.203125 66.171875 38.039062 65.8125 C 37.878906 65.453125 37.519531 65.226562 37.125 65.226562 C 36.832031 65.226562 36.550781 65.359375 36.363281 65.585938 L 34.328125 67.953125 C 33.5 67.277344 32.714844 66.558594 31.988281 65.789062 L 33.726562 63.34375 C 33.945312 63.039062 33.980469 62.636719 33.808594 62.304688 C 33.640625 61.96875 33.296875 61.753906 32.921875 61.753906 C 32.59375 61.753906 32.28125 61.914062 32.097656 62.183594 L 30.644531 64.226562 C 27.527344 60.285156 25.746094 55.414062 26.027344 50.105469 C 26.027344 50.085938 26.03125 50.0625 26.03125 50.042969 L 31.425781 52.578125 C 31.75 52.746094 32.140625 52.722656 32.441406 52.519531 C 32.742188 52.3125 32.910156 51.960938 32.875 51.59375 C 32.839844 51.230469 32.609375 50.914062 32.277344 50.773438 L 26.226562 47.921875 C 26.328125 47.109375 26.464844 46.308594 26.632812 45.515625 L 31.058594 48.410156 C 31.359375 48.617188 31.746094 48.648438 32.070312 48.484375 C 32.398438 48.324219 32.609375 48 32.625 47.636719 C 32.644531 47.273438 32.460938 46.929688 32.152344 46.738281 L 27.144531 43.460938 C 28.621094 38.324219 31.46875 33.828125 35.363281 30.6875 L 37.289062 34 C 37.566406 34.480469 38.175781 34.640625 38.65625 34.363281 C 39.132812 34.085938 39.296875 33.472656 39.019531 32.996094 L 36.988281 29.5 C 39.542969 27.804688 42.472656 26.65625 45.707031 26.210938 L 45.207031 29.640625 C 45.140625 30 45.277344 30.367188 45.5625 30.59375 C 45.847656 30.824219 46.234375 30.878906 46.570312 30.742188 C 46.90625 30.601562 47.140625 30.292969 47.183594 29.929688 L 47.753906 26.027344 C 48.042969 26.015625 48.335938 26 48.632812 26 Z M 57.796875 36.28125 C 57.167969 36.308594 56.683594 36.839844 56.710938 37.46875 C 56.738281 38.097656 57.269531 38.582031 57.898438 38.554688 C 58.523438 38.527344 59.011719 37.996094 58.984375 37.371094 C 58.957031 36.742188 58.425781 36.253906 57.796875 36.28125 Z M 13.652344 36.679688 C 13.152344 36.691406 12.734375 37.074219 12.679688 37.570312 C 12.625 38.070312 12.945312 38.53125 13.433594 38.652344 L 20.113281 40.433594 C 20.460938 40.523438 20.828125 40.425781 21.082031 40.171875 C 21.335938 39.917969 21.433594 39.550781 21.339844 39.203125 C 21.246094 38.859375 20.976562 38.589844 20.628906 38.5 L 13.949219 36.71875 C 13.851562 36.691406 13.753906 36.679688 13.652344 36.683594 Z M 88.351562 39.128906 C 88.335938 39.128906 88.324219 39.128906 88.308594 39.128906 C 88.285156 39.132812 88.261719 39.132812 88.242188 39.136719 L 79.972656 40.015625 C 79.613281 40.046875 79.292969 40.269531 79.140625 40.601562 C 78.992188 40.929688 79.03125 41.320312 79.25 41.609375 C 79.464844 41.902344 79.824219 42.054688 80.183594 42.003906 L 88.453125 41.125 C 88.996094 41.085938 89.40625 40.621094 89.378906 40.078125 C 89.351562 39.535156 88.894531 39.113281 88.351562 39.128906 Z M 62.292969 40.222656 C 61.667969 40.25 61.179688 40.78125 61.207031 41.410156 C 61.234375 42.039062 61.765625 42.523438 62.394531 42.496094 C 63.023438 42.46875 63.507812 41.9375 63.480469 41.308594 C 63.453125 40.683594 62.921875 40.199219 62.296875 40.222656 Z M 62.859375 46.21875 C 62.230469 46.246094 61.746094 46.777344 61.773438 47.40625 C 61.796875 48.035156 62.328125 48.519531 62.957031 48.492188 C 63.585938 48.464844 64.070312 47.933594 64.042969 47.304688 C 64.019531 46.679688 63.488281 46.191406 62.859375 46.21875 Z M 18.308594 46.78125 C 18.285156 46.777344 18.261719 46.78125 18.238281 46.78125 L 10.636719 47.097656 C 10.273438 47.109375 9.945312 47.3125 9.773438 47.628906 C 9.605469 47.949219 9.621094 48.335938 9.816406 48.640625 C 10.011719 48.945312 10.359375 49.121094 10.71875 49.097656 L 18.324219 48.777344 C 18.871094 48.769531 19.308594 48.320312 19.304688 47.773438 C 19.300781 47.226562 18.855469 46.78125 18.308594 46.777344 Z M 92.066406 48.40625 L 81.863281 48.480469 C 81.503906 48.476562 81.167969 48.671875 80.992188 48.984375 C 80.8125 49.296875 80.8125 49.679688 80.996094 49.988281 C 81.179688 50.300781 81.515625 50.488281 81.875 50.480469 L 92.078125 50.40625 C 92.441406 50.40625 92.773438 50.214844 92.953125 49.902344 C 93.132812 49.589844 93.128906 49.203125 92.945312 48.894531 C 92.761719 48.585938 92.425781 48.398438 92.0625 48.40625 Z M 18.472656 54.140625 C 18.347656 54.140625 18.226562 54.160156 18.109375 54.203125 L 10.503906 56.851562 C 10.15625 56.964844 9.898438 57.253906 9.824219 57.609375 C 9.753906 57.964844 9.882812 58.335938 10.160156 58.570312 C 10.4375 58.804688 10.820312 58.871094 11.160156 58.742188 L 18.765625 56.089844 C 19.230469 55.9375 19.515625 55.472656 19.441406 54.992188 C 19.367188 54.511719 18.960938 54.152344 18.472656 54.140625 Z M 81.328125 55.050781 C 80.253906 55.070312 79.390625 55.933594 79.363281 57.003906 C 79.339844 58.078125 80.167969 58.980469 81.238281 59.046875 L 89.214844 59.628906 C 90.316406 59.707031 91.273438 58.878906 91.355469 57.777344 C 91.433594 56.675781 90.605469 55.714844 89.503906 55.636719 L 81.527344 55.054688 C 81.460938 55.050781 81.394531 55.050781 81.328125 55.050781 Z M 18.410156 61.019531 C 18.027344 61.03125 17.65625 61.15625 17.339844 61.371094 L 12.042969 64.921875 C 11.449219 65.320312 11.113281 66.007812 11.160156 66.71875 C 11.207031 67.433594 11.632812 68.066406 12.273438 68.382812 C 12.914062 68.695312 13.675781 68.644531 14.269531 68.246094 L 19.570312 64.695312 C 20.324219 64.207031 20.660156 63.273438 20.386719 62.417969 C 20.117188 61.558594 19.308594 60.988281 18.410156 61.019531 Z M 78.242188 63.585938 C 78.207031 63.585938 78.171875 63.585938 78.140625 63.589844 C 77.65625 63.617188 77.265625 63.984375 77.203125 64.464844 C 77.144531 64.941406 77.433594 65.394531 77.894531 65.539062 L 84.839844 67.878906 C 85.179688 68.007812 85.5625 67.9375 85.839844 67.699219 C 86.113281 67.460938 86.238281 67.09375 86.164062 66.734375 C 86.089844 66.378906 85.824219 66.09375 85.476562 65.984375 L 78.535156 63.644531 C 78.4375 63.609375 78.339844 63.59375 78.242188 63.585938 Z M 24.023438 67.65625 C 23.726562 67.671875 23.453125 67.816406 23.277344 68.050781 L 20.195312 72.035156 C 19.855469 72.472656 19.9375 73.101562 20.375 73.4375 C 20.8125 73.777344 21.4375 73.695312 21.777344 73.257812 L 24.859375 69.277344 C 25.105469 68.96875 25.144531 68.542969 24.964844 68.195312 C 24.785156 67.84375 24.414062 67.632812 24.023438 67.65625 Z M 74 69.367188 C 73.574219 69.355469 73.1875 69.613281 73.039062 70.011719 C 72.886719 70.40625 73 70.855469 73.328125 71.128906 L 77.859375 75.066406 C 78.128906 75.300781 78.5 75.375 78.839844 75.257812 C 79.175781 75.140625 79.425781 74.851562 79.496094 74.503906 C 79.5625 74.152344 79.441406 73.792969 79.167969 73.554688 L 74.636719 69.621094 C 74.460938 69.464844 74.234375 69.375 74 69.367188 Z M 29.140625 73.367188 C 28.742188 73.347656 28.367188 73.574219 28.199219 73.941406 L 24.777344 80.957031 C 24.605469 81.28125 24.625 81.671875 24.828125 81.972656 C 25.027344 82.277344 25.378906 82.449219 25.742188 82.417969 C 26.101562 82.390625 26.421875 82.167969 26.574219 81.835938 L 29.996094 74.816406 C 30.148438 74.511719 30.136719 74.152344 29.964844 73.859375 C 29.792969 73.5625 29.484375 73.378906 29.140625 73.367188 Z M 66.738281 75.4375 C 65.847656 75.421875 65.058594 75.996094 64.792969 76.84375 C 64.53125 77.6875 64.855469 78.609375 65.59375 79.101562 L 71.605469 83.230469 C 72.195312 83.636719 72.953125 83.695312 73.601562 83.386719 C 74.246094 83.078125 74.675781 82.449219 74.730469 81.738281 C 74.789062 81.023438 74.457031 80.335938 73.871094 79.929688 L 67.859375 75.804688 C 67.53125 75.570312 67.140625 75.445312 66.738281 75.4375 Z M 35.820312 76.921875 C 35.34375 76.910156 34.921875 77.234375 34.816406 77.699219 L 33.445312 83.253906 C 33.359375 83.601562 33.464844 83.96875 33.722656 84.21875 C 33.980469 84.464844 34.351562 84.554688 34.695312 84.457031 C 35.039062 84.355469 35.304688 84.082031 35.390625 83.734375 L 36.761719 78.175781 C 36.835938 77.878906 36.777344 77.566406 36.59375 77.320312 C 36.410156 77.078125 36.125 76.929688 35.820312 76.921875 Z M 43.078125 78.230469 C 42.050781 78.28125 41.226562 79.097656 41.175781 80.125 L 40.757812 86.339844 C 40.683594 87.441406 41.515625 88.394531 42.617188 88.46875 C 43.71875 88.542969 44.675781 87.710938 44.75 86.609375 L 45.167969 80.390625 C 45.210938 79.816406 45.011719 79.25 44.609375 78.835938 C 44.210938 78.425781 43.652344 78.203125 43.078125 78.230469 Z M 57.980469 79.550781 C 57.644531 79.546875 57.332031 79.710938 57.140625 79.988281 C 56.953125 80.265625 56.914062 80.621094 57.042969 80.929688 L 60 88.492188 C 60.199219 89.007812 60.78125 89.261719 61.292969 89.058594 C 61.808594 88.859375 62.0625 88.277344 61.863281 87.765625 L 58.90625 80.203125 C 58.757812 79.816406 58.394531 79.558594 57.980469 79.554688 Z M 50.597656 80.015625 C 50.046875 80.011719 49.597656 80.457031 49.59375 81.007812 L 49.425781 88.386719 C 49.414062 88.9375 49.851562 89.394531 50.402344 89.40625 C 50.957031 89.417969 51.414062 88.980469 51.425781 88.429688 L 51.589844 81.054688 C 51.601562 80.78125 51.5 80.519531 51.3125 80.324219 C 51.125 80.128906 50.867188 80.019531 50.597656 80.015625 Z M 50.597656 80.015625 "/>
</g>
</svg>
